<mxfile host="app.diagrams.net" modified="2023-08-29T02:16:28.687Z" agent="Mozilla/5.0 (Linux; Android 12; CPH2159) AppleWebKit/537.36 (KHTML, like Gecko) Chrome/99.0.4844.88 Mobile Safari/537.36" version="21.6.9" etag="OCjGZn1rdwZrvJE-E0zt" type="github">
  <diagram name="Halaman-1" id="1tGZ2FfF7n5Ha82MB8Ht">
    <mxGraphModel>
      <root>
        <mxCell id="0" />
        <mxCell id="1" parent="0" />
      </root>
    </mxGraphModel>
  </diagram>
</mxfile>
